Coordinates
version=1
nRows=14
nColumns=42
inDegrees=yes

Units are S.I. units (second, meters, Newtons, ...)
If the header above contains a line with 'inDegrees', this indicates whether rotational values are in degrees (yes) or radians (no).

endheader
time	pelvis_tilt	pelvis_list	pelvis_rotation	pelvis_tx	pelvis_ty	pelvis_tz	hip_flexion_r	hip_adduction_r	hip_rotation_r	knee_angle_r	knee_adduction_r	knee_angle_r_beta	ankle_angle_r	subtalar_angle_r	mtp_angle_r	hip_flexion_l	hip_adduction_l	hip_rotation_l	knee_angle_l	knee_adduction_l	knee_angle_l_beta	ankle_angle_l	subtalar_angle_l	mtp_angle_l	lumbar_extension	lumbar_bending	lumbar_rotation	arm_flex_r	arm_add_r	arm_rot_r	elbow_flex_r	pro_sup_r	wrist_flex_r	wrist_dev_r	arm_flex_l	arm_add_l	arm_rot_l	elbow_flex_l	pro_sup_l	wrist_flex_l	wrist_dev_l
      1.46000000	      1.95541480	     -5.25342068	      4.41403870	     -0.64417430	      0.95642756	      0.30862383	     13.55741094	      1.66538762	    -11.45870113	      7.01305252	      5.80289623	      0.12240086	     -2.00975126	      8.05546854	     -7.54615517	    -18.30063008	     -6.73668736	     -6.43616140	     16.17644132	      0.64368977	      0.28233216	     11.29708432	     18.65852218	     -7.54615517	     -5.34295832	     10.69044855	     -8.88477699	    -11.90679646	    -11.08736505	      0.85350326	     21.72119607	     90.00000001	      0.00000000	      0.00000000	      4.36873995	    -18.32094309	     20.09051215	     43.56401964	     90.00000001	      0.00000000	      0.00000000
      1.47000000	      1.56300757	     -5.61724688	      4.28958362	     -0.63270423	      0.95821822	      0.30967806	     13.04998797	      2.19429520	     -9.93448518	      6.45410813	      5.97344206	      0.11264544	     -2.34487906	      6.11105570	     -7.54338441	    -16.82326449	     -7.50699358	     -7.28218864	     19.13425073	      0.61421465	      0.33395568	      9.12118987	     18.38049331	     -7.54338441	     -4.83523188	     11.18262527	     -8.68185422	    -11.60185158	    -11.06733999	      0.10119676	     21.30752838	     90.00000001	      0.00000000	      0.00000000	      3.52667796	    -17.89812076	     19.76470772	     43.27187332	     90.00000001	      0.00000000	      0.00000000
      1.48000000	      1.64042768	     -5.55085055	      4.14415448	     -0.62131640	      0.96056591	      0.31063291	     12.21189780	      2.22342951	     -9.48803586	      6.43076740	      6.10669826	      0.11223806	     -1.93102481	      6.23868720	     -7.54266812	    -16.00392912	     -7.75110712	     -7.19471768	     21.67508002	      0.69849810	      0.37830151	      6.49766872	     17.68924692	     -7.54266812	     -4.93279645	     11.20834764	     -8.31863030	    -11.41711464	    -11.10723771	      0.03675825	     21.29756262	     90.00000001	      0.00000000	      0.00000000	      2.84557402	    -17.67429104	     19.84799756	     43.09066048	     90.00000001	      0.00000000	      0.00000000
      1.49000000	      1.71231357	     -5.49095090	      3.86159639	     -0.61012874	      0.96287175	      0.31167504	     11.42541369	      2.23819736	     -9.02347028	      6.50970242	      6.34596678	      0.11361574	     -1.57953821	      6.45814957	     -7.54213224	    -15.12130557	     -7.95502076	     -6.69865139	     24.23843893	      0.95242504	      0.42304056	      4.16048216	     17.15375582	     -7.54213224	     -5.08926654	     11.23363675	     -7.72469921	    -11.26684863	    -11.18396362	     -0.00909713	     21.34896829	     90.00000001	      0.00000000	      0.00000000	      2.20662607	    -17.41582148	     19.87707701	     42.96195777	     90.00000001	      0.00000000	      0.00000000
      1.50000000	      1.75811392	     -5.39049922	      3.72109866	     -0.59909167	      0.96498447	      0.31272584	     10.52392068	      2.27567858	     -8.65043538	      6.25924791	      6.42310910	      0.10924448	     -1.07072452	      6.72592011	     -7.54151450	    -13.74014969	     -8.22489607	     -6.70240323	     27.49840735	      0.98807202	      0.47993775	      1.05990027	     15.98099304	     -7.54151450	     -5.17461494	     11.17628652	     -7.37871553	    -11.01343226	    -11.20940007	     -0.07488454	     21.42926759	     90.00000001	      0.00000000	      0.00000000	      1.54771315	    -17.21095928	     19.89658756	     42.74538055	     90.00000001	      0.00000000	      0.00000000
      1.51000000	      1.43603087	     -5.49966965	      3.57373001	     -0.58797033	      0.96655764	      0.31350435	      9.92234304	      2.56728262	     -8.33222421	      5.76537372	      6.36618347	      0.10062475	     -0.74255445	      6.84994827	     -7.54063330	    -11.79102802	     -8.59842006	     -6.84754506	     30.87561515	      0.74321266	      0.53888114	     -2.03147480	     14.08645575	     -7.54063330	     -4.79027170	     11.37500249	     -7.10253394	    -10.76155230	    -11.36264172	     -0.24827692	     21.40539861	     90.00000001	      0.00000000	      0.00000000	      0.72728071	    -16.94005705	     19.91280340	     42.51757466	     90.00000001	      0.00000000	      0.00000000
      1.52000000	      1.31825336	     -5.47588283	      3.36722959	     -0.57738949	      0.96808640	      0.31459066	      9.20048480	      2.72689791	     -8.03205807	      5.44027629	      6.37217248	      0.09495073	     -0.42775946	      6.96575733	     -7.53975815	    -10.04526577	     -8.88344772	     -6.56584250	     34.13721158	      0.80436264	      0.59580674	     -4.47345279	     12.38482540	     -7.53975815	     -4.74868127	     11.38766415	     -6.64764153	    -10.49890845	    -11.44641465	     -0.39790995	     21.58548540	     90.00000001	      0.00000000	      0.00000000	      0.08214584	    -16.70358851	     19.84656915	     42.33020352	     90.00000001	      0.00000000	      0.00000000
      1.53000000	      1.03989622	     -5.49601965	      3.15486046	     -0.56717458	      0.96925695	      0.31583031	      8.68778682	      2.95665022	     -7.67482612	      5.11156971	      6.33592709	      0.08921372	     -0.27668857	      6.77972403	     -7.53792408	     -8.02472508	     -9.22254255	     -5.87379593	     37.44876205	      1.14559947	      0.65360420	     -6.50477448	      9.65842577	     -7.53792408	     -4.55499106	     11.40868947	     -6.22116860	    -10.18427673	    -11.50621456	     -0.61625141	     21.78835337	     90.00000001	      0.00000000	      0.00000000	     -0.55851983	    -16.46369546	     19.65998683	     42.07086319	     90.00000001	      0.00000000	      0.00000000
      1.54000000	      1.07083800	     -5.41885052	      2.98113208	     -0.55696799	      0.97048871	      0.31687156	      7.82128283	      3.05578246	     -7.55298515	      4.78686233	      6.31958583	      0.08354651	      0.11319210	      7.16210884	     -7.53633489	     -6.32439547	     -9.39163115	     -5.57743790	     40.55044033	      1.12136503	      0.70773870	     -8.04221714	      7.43841651	     -7.53633489	     -4.71783587	     11.33496018	     -5.77716443	     -9.87622128	    -11.62245097	     -0.61289411	     22.13249969	     90.00000001	      0.00000000	      0.00000000	     -1.12442372	    -16.28117867	     19.55499197	     41.87509431	     90.00000001	      0.00000000	      0.00000000
      1.55000000	      1.34224753	     -5.24303888	      2.85836872	     -0.54679077	      0.97175023	      0.31770970	      6.68121913	      3.00060386	     -7.53434512	      4.46401585	      6.37549944	      0.07791177	      0.68700319	      7.69556558	     -7.53567997	     -4.87292325	     -9.38961719	     -5.76025284	     43.44046049	      0.62963237	      0.75817906	     -8.71732821	      5.92367592	     -7.53567997	     -5.15272962	     11.15786489	     -5.36835856	     -9.52748488	    -11.74570951	     -0.57216610	     22.54517956	     90.00000001	      0.00000000	      0.00000000	     -1.63156996	    -16.12875207	     19.50681076	     41.67017177	     90.00000001	      0.00000000	      0.00000000
      1.56000000	      1.20653213	     -5.18420135	      2.71194605	     -0.53714854	      0.97245909	      0.31886983	      6.18756575	      3.08621449	     -7.69872512	      4.46455959	      6.32346151	      0.07792126	      1.16615186	      8.38591421	     -7.53346875	     -2.89666016	     -9.58791845	     -5.44116770	     46.31381507	      0.66193353	      0.80832856	     -9.18259179	      3.16186328	     -7.53346875	     -5.16050998	     11.04551849	     -4.98649792	     -9.19905608	    -11.93402645	     -0.08416856	     23.02830721	     90.00000001	      0.00000000	      0.00000000	     -2.14394250	    -15.95599302	     19.28525961	     41.36305924	     90.00000001	      0.00000000	      0.00000000
      1.57000000	      1.52465816	     -4.98809362	      2.56857891	     -0.52727480	      0.97353909	      0.31974578	      5.08802451	      2.97460086	     -7.62878709	      4.28733176	      6.40611379	      0.07482806	      1.75326935	      8.88664109	     -7.53289046	     -1.51928438	     -9.55543225	     -5.94937645	     48.74833793	     -0.01301974	      0.85081900	     -8.73974277	      1.91484218	     -7.53289046	     -5.66807074	     10.80404876	     -4.56572122	     -8.77032218	    -12.07475248	      0.00090986	     23.46771143	     90.00000001	      0.00000000	      0.00000000	     -2.57912958	    -15.82101951	     19.26074983	     41.07177361	     90.00000001	      0.00000000	      0.00000000
      1.58000000	      1.69592280	     -4.82761377	      2.39243771	     -0.51766459	      0.97441234	      0.32083248	      4.22656263	      2.92724141	     -7.48166132	      4.20933242	      6.42205457	      0.07346671	      2.31681900	      9.35085149	     -7.53227305	      0.03681485	     -9.59057573	     -6.48660192	     50.98569500	     -0.63094278	      0.88986825	     -8.07772703	      0.62552424	     -7.53227305	     -6.02616132	     10.55422431	     -4.13083425	     -8.33673473	    -12.20200657	      0.17515099	     23.94604495	     90.00000001	      0.00000000	      0.00000000	     -2.99186309	    -15.69448434	     19.21119861	     40.69905437	     90.00000001	      0.00000000	      0.00000000
      1.59000000	      2.04677816	     -4.51834970	      2.19979707	     -0.50832480	      0.97552927	      0.32204428	      3.28041425	      2.70624862	     -7.37306727	      4.32720071	      6.46242884	      0.07552390	      2.71014964	      9.57677850	     -7.53192228	      1.31529582	     -9.51714862	     -6.85019197	     52.84152677	     -0.96791426	      0.92225862	     -7.29687583	      0.02255551	     -7.53192228	     -6.62616179	     10.10086580	     -3.67147481	     -7.78615802	    -12.27912724	      0.26369443	     24.36030132	     90.00000001	      0.00000000	      0.00000000	     -3.32777806	    -15.65418660	     19.18438575	     40.35307792	     90.00000001	      0.00000000	      0.00000000
